<svg width="16" height="17" viewBox="0 0 16 17" fill="none" xmlns="http://www.w3.org/2000/svg">
<mask id="mask0_2031_1556" style="mask-type:alpha" maskUnits="userSpaceOnUse" x="0" y="0" width="16" height="17">
<rect y="0.5" width="16" height="16" fill="#D9D9D9"/>
</mask>
<g mask="url(#mask0_2031_1556)">
<path d="M8.31675 11.7166L13.9001 6.13325L13.0334 5.26659L7.45008 10.8499L8.31675 11.7166ZM2.00008 10.6833C2.00008 11.0055 2.11119 11.2555 2.33341 11.4333C2.55564 11.611 2.9223 11.7277 3.43342 11.7833C3.61119 11.8055 3.75286 11.886 3.85842 12.0249C3.96397 12.1638 4.01119 12.3221 4.00008 12.4999C3.98897 12.6888 3.9223 12.8444 3.80008 12.9666C3.67786 13.0888 3.52786 13.1388 3.35008 13.1166C2.45008 13.0055 1.77786 12.7471 1.33341 12.3416C0.88897 11.936 0.666748 11.3833 0.666748 10.6833C0.666748 9.96103 0.96397 9.37492 1.55841 8.92492C2.15286 8.47492 2.97786 8.20547 4.03342 8.11659C4.46675 8.08325 4.79175 8.01381 5.00842 7.90825C5.22508 7.8027 5.33342 7.65547 5.33342 7.46659C5.33342 7.22214 5.21675 7.03047 4.98342 6.89159C4.75008 6.7527 4.36675 6.64436 3.83342 6.56659C3.65564 6.54436 3.51397 6.46103 3.40842 6.31659C3.30286 6.17214 3.26119 6.01103 3.28342 5.83325C3.30564 5.64436 3.38341 5.49159 3.51675 5.37492C3.65008 5.25825 3.80564 5.21103 3.98342 5.23325C4.90564 5.36659 5.58342 5.61381 6.01675 5.97492C6.45008 6.33603 6.66675 6.83325 6.66675 7.46659C6.66675 8.05547 6.45286 8.51659 6.02508 8.84992C5.5973 9.18325 4.96675 9.38325 4.13342 9.44992C3.4223 9.50547 2.88897 9.63603 2.53341 9.84159C2.17786 10.0471 2.00008 10.3277 2.00008 10.6833ZM8.63342 13.2833L5.88342 10.5333L12.2501 4.16659C12.4723 3.94436 12.7362 3.83325 13.0417 3.83325C13.3473 3.83325 13.6112 3.94436 13.8334 4.16659L15.0001 5.33325C15.2223 5.55547 15.3334 5.81936 15.3334 6.12492C15.3334 6.43047 15.2223 6.69436 15.0001 6.91659L8.63342 13.2833ZM5.98342 13.8333C5.79453 13.8777 5.62786 13.8277 5.48342 13.6833C5.33897 13.5388 5.28897 13.3721 5.33342 13.1833L5.88342 10.5333L8.63342 13.2833L5.98342 13.8333Z" fill="#D1D5DB"/>
</g>
</svg>
