<svg width="12" height="15" viewBox="0 0 12 15" fill="none" xmlns="http://www.w3.org/2000/svg">
<path d="M4 11.4999C3.63333 11.4999 3.31944 11.3694 3.05833 11.1083C2.79722 10.8471 2.66667 10.5333 2.66667 10.1666V2.16659C2.66667 1.79992 2.79722 1.48603 3.05833 1.22492C3.31944 0.963808 3.63333 0.833252 4 0.833252H10C10.3667 0.833252 10.6806 0.963808 10.9417 1.22492C11.2028 1.48603 11.3333 1.79992 11.3333 2.16659V10.1666C11.3333 10.5333 11.2028 10.8471 10.9417 11.1083C10.6806 11.3694 10.3667 11.4999 10 11.4999H4ZM4 10.1666H10V2.16659H4V10.1666ZM1.33333 14.1666C0.966667 14.1666 0.652778 14.036 0.391667 13.7749C0.130556 13.5138 0 13.1999 0 12.8333V4.16658C0 3.9777 0.0638889 3.81936 0.191667 3.69158C0.319444 3.56381 0.477778 3.49992 0.666667 3.49992C0.855555 3.49992 1.01389 3.56381 1.14167 3.69158C1.26944 3.81936 1.33333 3.9777 1.33333 4.16658V12.8333H8C8.18889 12.8333 8.34722 12.8971 8.475 13.0249C8.60278 13.1527 8.66667 13.311 8.66667 13.4999C8.66667 13.6888 8.60278 13.8471 8.475 13.9749C8.34722 14.1027 8.18889 14.1666 8 14.1666H1.33333Z" fill="#D1D5DB"/>
</svg>
